<svg width="22" height="24" viewBox="0 0 22 24" fill="none" xmlns="http://www.w3.org/2000/svg">
<path d="M21.9986 20.643C21.9866 21.1054 21.8888 21.5604 21.7111 21.9811C21.5335 22.4018 21.2795 22.7796 20.9643 23.0921C20.649 23.4045 20.279 23.6453 19.8762 23.8C19.4733 23.9547 19.0458 24.0203 18.6191 23.9929C15.9529 24.0089 13.2854 23.9929 10.6192 23.9929C10.455 23.9929 10.2975 23.9223 10.1814 23.7966C10.0652 23.671 10 23.5006 10 23.3229C10 23.1452 10.0652 22.9748 10.1814 22.8491C10.2975 22.7235 10.455 22.6529 10.6192 22.6529C13.3436 22.6529 16.068 22.6958 18.7924 22.6529C20.1633 22.6315 20.7602 21.5166 20.7602 20.1901V3.48893C20.7696 3.06723 20.6597 2.6525 20.4453 2.30024C20.2308 1.94798 19.922 1.67501 19.5602 1.51787C19.1327 1.39173 18.6878 1.34863 18.2463 1.39057H10.6192C10.455 1.39057 10.2975 1.31998 10.1814 1.19434C10.0652 1.0687 10 0.898284 10 0.720596C10 0.542907 10.0652 0.372496 10.1814 0.246852C10.2975 0.121207 10.455 0.0506204 10.6192 0.0506204C13.3746 0.0506204 16.1485 -0.0632754 18.9014 0.0506204C19.3229 0.0619723 19.738 0.163945 20.1226 0.3506C20.5073 0.537255 20.8538 0.804861 21.1419 1.13783C21.43 1.4708 21.6541 1.86247 21.8009 2.29004C21.9478 2.71761 22.0146 3.17252 21.9973 3.62829L21.9986 20.643Z" fill="black"/>
<path d="M15.822 12.5103C15.9263 12.3915 15.9874 12.2304 15.9926 12.0605C15.9963 12.0406 15.9988 12.0204 16 12C15.9987 11.9801 15.9963 11.9604 15.9926 11.9409C15.9882 11.7704 15.927 11.6085 15.822 11.4897L11.2875 6.20232C11.171 6.07103 11.0149 5.99839 10.8528 6.00003C10.6908 6.00167 10.5358 6.07747 10.4212 6.2111C10.3067 6.34473 10.2417 6.52551 10.2403 6.71448C10.2389 6.90346 10.3012 7.08552 10.4137 7.22146L13.894 11.2793H0.617952C0.454061 11.2793 0.296882 11.3552 0.180994 11.4904C0.0651052 11.6255 0 11.8088 0 12C0 12.1912 0.0651052 12.3745 0.180994 12.5096C0.296882 12.6448 0.454061 12.7207 0.617952 12.7207H13.894L10.4137 16.7785C10.3012 16.9145 10.2389 17.0965 10.2403 17.2855C10.2417 17.4745 10.3067 17.6553 10.4212 17.7889C10.5358 17.9225 10.6908 17.9983 10.8528 18C11.0149 18.0016 11.171 17.929 11.2875 17.7977L15.822 12.5103Z" fill="black"/>
</svg>
